<?xml version="1.0" encoding="UTF-8"?>
<svg width="700pt" height="700pt" version="1.1" viewBox="0 0 700 600" xmlns="http://www.w3.org/2000/svg">
 <path fill="#FFFFFF" d="m70 280c0 154.64 125.36 280 280 280s280-125.36 280-280-125.36-280-280-280-280 125.36-280 280zm56 0c0-51.688 17.781-99.176 47.266-137.14l313.88 313.88c-37.969 29.484-85.457 47.266-137.14 47.266-123.51 0-224-100.49-224-224zm448 0c0 51.688-17.781 99.176-47.266 137.14l-313.88-313.88c37.969-29.484 85.457-47.266 137.14-47.266 123.51 0 224 100.49 224 224z"/>
</svg>
